<svg xmlns="http://www.w3.org/2000/svg" xmlns:xlink="http://www.w3.org/1999/xlink" version="1.1" style="enable-background:new 0 0 477.112 477.112;" xml:space="preserve" width="22" height="31"><rect id="backgroundrect" width="100%" height="100%" x="0" y="0" fill="none" stroke="none" style="" class=""/> <g class="currentLayer" style=""><title>Layer 1</title><g id="svg_1" class=""><path style="fill:#0075D0" d="M11.027170623217376,0.6070039513562734 c-5.695599862988484,0 -10.312744472740164,4.617144609751681 -10.312744472740164,10.312744472740164 c0,5.695728772294391 10.312744472740164,19.0785772745693 10.312744472740164,19.0785772745693 s10.312744472740164,-13.382848502274909 10.312744472740164,-19.0785772745693 C21.339915095957533,5.224148561107952 16.722770486205857,0.6070039513562734 11.027170623217376,0.6070039513562734 zM11.027170623217376,14.013571765918483 c-1.7086928498271352,0 -3.093823341822049,-1.385130491994913 -3.093823341822049,-3.093823341822049 s1.385130491994913,-3.093823341822049 3.093823341822049,-3.093823341822049 s3.093823341822049,1.385130491994913 3.093823341822049,3.093823341822049 S12.735863473044507,14.013571765918483 11.027170623217376,14.013571765918483 z" data-original="#7C84E8" class="active-path" data-old_color="#7C84E8" id="svg_2"/><circle style="fill:#FFFFFF" cx="11.027170607481374" cy="10.919748424096433" r="3.0938234329223633" data-original="#A1A7EF" class="" data-old_color="#A1A7EF" id="svg_3"/><g id="svg_4">
	<path style="fill:#A0A3EC" d="M11.027170623217376,30.843455108206797 l-0.4083846811205144,-0.5305907031224846 C10.193385232596333,29.761132575792715 0.1987889268402026,16.72427665057823 0.1987889268402026,10.919748424096433 c0,-5.980360519742018 4.84802117663515,-10.828381696377171 10.828381696377171,-10.828381696377171 s10.828381696377171,4.84802117663515 10.828381696377171,10.828381696377171 c0,5.8045282264818 -9.99459630575613,18.84138415169628 -10.419997015256659,19.393115980987876 L11.027170623217376,30.843455108206797 zM11.027170623217376,1.122641174993279 c-5.4083254747697165,0.005994282724780256 -9.791112966378375,4.388781774333439 -9.797107249103155,9.797107249103155 c0,4.8232705899005754 7.893890256658958,15.675371598565048 9.797107249103155,18.223135120555504 c1.9032169924441975,-2.547763521990457 9.797107249103155,-13.400895805102206 9.797107249103155,-18.223135120555504 C20.818283589595744,5.511422949326721 16.435496097987095,1.1286354577180586 11.027170623217376,1.122641174993279 z" data-original="#231F20" class="" data-old_color="#231F20" id="svg_5"/>
	<path style="fill:#A0A3EC" d="M11.027170623217376,14.52920898955549 c-1.9934535065806742,0 -3.609460565459057,-1.6160070588783837 -3.609460565459057,-3.609460565459057 s1.6160070588783837,-3.609460565459057 3.609460565459057,-3.609460565459057 s3.609460565459057,1.6160070588783837 3.609460565459057,3.609460565459057 C14.634375275823022,12.912235110882788 13.019657310003725,14.526953076702078 11.027170623217376,14.52920898955549 zM11.027170623217376,8.341562305911392 c-1.4238677384206437,0 -2.578186118185041,1.1543183797643977 -2.578186118185041,2.578186118185041 s1.1543183797643977,2.578186118185041 2.578186118185041,2.578186118185041 s2.578186118185041,-1.1543183797643977 2.578186118185041,-2.578186118185041 C13.603680920425589,9.49658968685829 12.45032936045552,8.343238126888215 11.027170623217376,8.341562305911392 z" data-original="#231F20" class="" data-old_color="#231F20" id="svg_6"/>
</g></g></g></svg>