<svg xmlns="http://www.w3.org/2000/svg" height="33.64705885286196" width="29"><rect id="backgroundrect" width="100%" height="100%" x="0" y="0" fill="none" stroke="none" class="" style=""/> <g class="currentLayer" style=""><title>Layer 1</title><g id="svg_1" class=""><path d="m14.446245212611913,0 c7.893427364981072,0 14.317033905175528,6.129821258167374 14.317033905175528,13.687408901852255 c0,10.622199956391386 -14.317033905175528,19.775772124441886 -14.317033905175528,19.775772124441886 s-14.317332145198376,-9.153572168050497 -14.317332145198376,-19.775772124441886 c0,-7.55758764368488 6.4239047802173035,-13.687408901852255 14.317332145198376,-13.687408901852255 zm10.45278878109754,14.064408418703342 c0,-5.772805120870869 -4.679983660226673,-10.452788857451875 -10.45278878109754,-10.452788857451875 c-5.773103360893718,0 -10.453087097474723,4.679983736581005 -10.453087097474723,10.452788857451875 c0,5.773103360893718 4.679983736581005,10.45308702112039 10.453087097474723,10.45308702112039 c5.772805120870869,0 10.45278878109754,-4.679983660226673 10.45278878109754,-10.45308702112039 zm0,0 " fill="#00acea" data-original="#00ACEA" class="hovered-path active-path" data-old_color="#00acea" style="fill:#006F96" id="svg_2"/><path d="m24.899033993709455,14.064408418703342 c0,5.773103360893718 -4.679983660226673,10.45308702112039 -10.45278878109754,10.45308702112039 c-5.773103360893718,0 -10.453087097474723,-4.679983660226673 -10.453087097474723,-10.45308702112039 c0,-5.772805120870869 4.679983736581005,-10.452788857451875 10.453087097474723,-10.452788857451875 c5.772805120870869,0 10.45278878109754,4.679983736581005 10.45278878109754,10.452788857451875 zm0,0 " fill="#fedb41" data-original="#FEDB41" class="" data-old_color="#fedb41" style="fill:#FFFFFF" id="svg_3"/><g fill="#f4b844" id="svg_4"><path d="m14.446245212611913,15.313517577384005 c-0.4217383453888452,0 -0.7635433252680266,-0.3418049798791813 -0.7635433252680266,-0.7635433252680266 v-3.558827717616442 c0,-0.4217384217431777 0.3418049798791813,-0.7635433252680266 0.7635433252680266,-0.7635433252680266 s0.7635433252680266,0.34180490352484877 0.7635433252680266,0.7635433252680266 v3.558827717616442 c0,0.4217383453888452 -0.3418049798791813,0.7635433252680266 -0.7635433252680266,0.7635433252680266 zm0,0 " data-original="#F4B844" class="" style="fill:#FFFFFF" data-old_color="#F4B844" id="svg_5"/><path d="m14.446245212611913,17.75685621824169 c-0.4217383453888452,0 -0.7635433252680266,-0.3418049798791813 -0.7635433252680266,-0.7635433252680266 v-0.5046544165443363 c0,-0.4217384217431777 0.3418049798791813,-0.7635433252680266 0.7635433252680266,-0.7635433252680266 s0.7635433252680266,0.34180490352484877 0.7635433252680266,0.7635433252680266 v0.5046544165443363 c0,0.4217383453888452 -0.3418049798791813,0.7635433252680266 -0.7635433252680266,0.7635433252680266 zm0,0 " data-original="#F4B844" class="" style="fill:#FFFFFF" data-old_color="#F4B844" id="svg_6"/></g></g></g></svg>