<svg xmlns="http://www.w3.org/2000/svg" xmlns:xlink="http://www.w3.org/1999/xlink" version="1.1" style="enable-background:new 0 0 477.112 477.112;" xml:space="preserve" width="22" height="31"><rect id="backgroundrect" width="100%" height="100%" x="0" y="0" fill="none" stroke="none" style="" class=""/> <g class="currentLayer" style=""><title>Layer 1</title><g id="svg_1" class=""><path style="fill:#00BF5C" d="M11.03440097973996,0.6170697906824262 c-5.6951337884788105,0 -10.31190057439071,4.616766785911902 -10.31190057439071,10.31190057439071 c0,5.69526268723599 10.31190057439071,19.077016062622818 10.31190057439071,19.077016062622818 s10.31190057439071,-13.381753375386825 10.31190057439071,-19.077016062622818 C21.346301554130655,5.233836576594328 16.729534768218766,0.6170697906824262 11.03440097973996,0.6170697906824262 zM11.03440097973996,14.022540537390352 c-1.7085530264193616,0 -3.0935701723172135,-1.3850171458978524 -3.0935701723172135,-3.0935701723172135 s1.3850171458978524,-3.0935701723172135 3.0935701723172135,-3.0935701723172135 s3.0935701723172135,1.3850171458978524 3.0935701723172135,3.0935701723172135 S12.742954006159312,14.022540537390352 11.03440097973996,14.022540537390352 z" data-original="#7C84E8" class="active-path" data-old_color="#7C84E8" id="svg_2"/><circle style="fill:#FFFFFF" cx="11.03440096400523" cy="10.92897036507314" r="3.0935702731306236" data-original="#A1A7EF" class="" data-old_color="#A1A7EF" id="svg_3"/><g id="svg_4">
	<path style="fill:#A6FFB0" d="M11.03440097973996,30.851046679767276 l-0.4083512627458729,-0.5305472845524022 C10.200683818300472,29.76881271448497 0.2069053766297038,16.733023603368952 0.2069053766297038,10.92897036507314 c0,-5.9798711430891744 4.847624460021073,-10.827495603110249 10.827495603110249,-10.827495603110249 s10.827495603110249,4.847624460021073 10.827495603110249,10.827495603110249 c0,5.804053238295812 -9.993778441670758,18.839842349411832 -10.419144340364376,19.391529030141733 L11.03440097973996,30.851046679767276 zM11.03440097973996,1.132664819401962 c-5.4078829081034385,0.005993792208864612 -9.790311753462312,4.388422637567737 -9.796305545671176,9.796305545671176 c0,4.822875898642535 7.8932442946673715,15.674088873073883 9.796305545671176,18.221643909977107 c1.903061251003806,-2.5475550369032254 9.796305545671176,-13.39979920139201 9.796305545671176,-18.221643909977107 C20.824712733202272,5.521087456969697 16.442283887843395,1.1386586116108264 11.03440097973996,1.132664819401962 z" data-original="#231F20" class="" data-old_color="#231F20" id="svg_5"/>
	<path style="fill:#A6FFB0" d="M11.03440097973996,14.538135566109888 c-1.9932903810297244,0 -3.6091652010367494,-1.6158748200070245 -3.6091652010367494,-3.6091652010367494 s1.6158748200070245,-3.6091652010367494 3.6091652010367494,-3.6091652010367494 s3.6091652010367494,1.6158748200070245 3.6091652010367494,3.6091652010367494 C14.64131045252605,12.921294005424013 13.026724620090828,14.535879837859238 11.03440097973996,14.538135566109888 zM11.03440097973996,8.350995221475461 c-1.4237512224304076,0 -2.5779751435976777,1.1542239211672705 -2.5779751435976777,2.5779751435976777 s1.1542239211672705,2.5779751435976777 2.5779751435976777,2.5779751435976777 s2.5779751435976777,-1.1542239211672705 2.5779751435976777,-2.5779751435976777 C13.610700439494284,9.50592808580722 12.45744325900587,8.3526709053188 11.03440097973996,8.350995221475461 z" data-original="#231F20" class="" data-old_color="#231F20" id="svg_6"/>
</g></g></g></svg>