<svg xmlns="http://www.w3.org/2000/svg" xmlns:xlink="http://www.w3.org/1999/xlink" version="1.1" style="enable-background:new 0 0 477.112 477.112;" xml:space="preserve" width="22" height="31"><rect id="backgroundrect" width="100%" height="100%" x="0" y="0" fill="none" stroke="none" style="" class=""/> <g class="currentLayer" style=""><title>Layer 1</title><g id="svg_1" class=""><path style="fill:#57515A" d="M10.93832304761219,0.33584292832504503 c-5.804204694097876,0 -10.509389935672774,4.705185241574897 -10.509389935672774,10.509389935672774 c0,5.804336061472074 10.509389935672774,19.442371380994633 10.509389935672774,19.442371380994633 s10.509389935672774,-13.63803531952256 10.509389935672774,-19.442371380994633 C21.447712983284955,5.041028169899942 16.74252774171006,0.33584292832504503 10.93832304761219,0.33584292832504503 zM10.93832304761219,13.99804984469965 c-1.741274544966784,0 -3.1528169807018323,-1.4115424357350497 -3.1528169807018323,-3.1528169807018323 s1.4115424357350497,-3.1528169807018323 3.1528169807018323,-3.1528169807018323 s3.1528169807018323,1.4115424357350497 3.1528169807018323,3.1528169807018323 S12.679597592578961,13.99804984469965 10.93832304761219,13.99804984469965 z" data-original="#7C84E8" class="active-path" data-old_color="#7C84E8" id="svg_2"/><circle style="fill:#FFFFFF" cx="10.938323031576129" cy="10.845232863997818" r="3.1528167724609375" data-original="#A1A7EF" class="" data-old_color="#A1A7EF" id="svg_3"/><g id="svg_4">
	<path style="fill:#D9D7D9" d="M10.93832304761219,31.148848750220832 l-0.41617184145264197,-0.5407081121903652 C10.08863887131303,30.045888276471974 -0.0965363848442182,16.760442989291242 -0.0965363848442182,10.845232863997818 c0,-6.094395223696642 4.940464208759771,-11.034859432456413 11.034859432456413,-11.034859432456413 s11.034859432456413,4.940464208759771 11.034859432456413,11.034859432456413 c0,5.91521012529342 -10.18517525615727,19.20065541247416 -10.61868759100377,19.762907774032648 L10.93832304761219,31.148848750220832 zM10.93832304761219,0.8613124251086838 c-5.511452500702291,0.006108582900109813 -9.977811855989028,4.472467938186843 -9.983920438889136,9.983920438889136 c0,4.915241672914156 8.044412526260725,15.974272702222617 9.983920438889136,18.570617485830578 c1.9395079126284114,-2.59634478360796 9.983920438889136,-13.656426751909986 9.983920438889136,-18.570617485830578 C20.916134903601222,5.333780363295526 16.449775548314488,0.8674210080087953 10.93832304761219,0.8613124251086838 z" data-original="#231F20" class="" data-old_color="#231F20" id="svg_5"/>
	<path style="fill:#D9D7D9" d="M10.93832304761219,14.52351934148329 c-2.0314650745655474,0 -3.678286477485471,-1.6468214029199237 -3.678286477485471,-3.678286477485471 s1.6468214029199237,-3.678286477485471 3.678286477485471,-3.678286477485471 s3.678286477485471,1.6468214029199237 3.678286477485471,3.678286477485471 C14.614310596049243,12.875712683256902 12.968802866871279,14.521220412434863 10.93832304761219,14.52351934148329 zM10.93832304761219,8.217885380079625 c-1.4510183316809206,0 -2.627347483918194,1.1763291522372739 -2.627347483918194,2.627347483918194 s1.1763291522372739,2.627347483918194 2.627347483918194,2.627347483918194 s2.627347483918194,-1.1763291522372739 2.627347483918194,-2.627347483918194 C13.563962755665834,9.394937052874976 12.388618858735036,8.219593155944175 10.93832304761219,8.217885380079625 z" data-original="#231F20" class="" data-old_color="#231F20" id="svg_6"/>
</g></g></g></svg>