<svg xmlns="http://www.w3.org/2000/svg" xmlns:xlink="http://www.w3.org/1999/xlink" version="1.1" style="enable-background:new 0 0 477.112 477.112;" xml:space="preserve" width="22" height="31"><rect id="backgroundrect" width="100%" height="100%" x="0" y="0" fill="none" stroke="none" style="" class=""/> <g class="currentLayer" style=""><title>Layer 1</title><g id="svg_1" class=""><path style="fill:#FF5E00" d="M11.04534400384216,0.4912454433685055 c-5.7207133062115405,0 -10.358216157728611,4.6375028515170715 -10.358216157728611,10.358216157728611 c0,5.720842783913512 10.358216157728611,19.162699891797935 10.358216157728611,19.162699891797935 s10.358216157728611,-13.44185710788442 10.358216157728611,-19.162699891797935 C21.403560161570763,5.128748294885577 16.7660573100537,0.4912454433685055 11.04534400384216,0.4912454433685055 zM11.04534400384216,13.9569264484157 c-1.7162269396336598,0 -3.1074648473185835,-1.391237907684924 -3.1074648473185835,-3.1074648473185835 s1.391237907684924,-3.1074648473185835 3.1074648473185835,-3.1074648473185835 s3.1074648473185835,1.391237907684924 3.1074648473185835,3.1074648473185835 S12.76157094347581,13.9569264484157 11.04534400384216,13.9569264484157 z" data-original="#7C84E8" class="active-path" data-old_color="#7C84E8" id="svg_2"/><circle style="fill:#FFFFFF" cx="11.045343988036779" cy="10.84946160109712" r="3.1074647903442383" data-original="#A1A7EF" class="" data-old_color="#A1A7EF" id="svg_3"/><g id="svg_4">
	<path style="fill:#FBBB83" d="M11.04534400384216,30.86101730702092 l-0.4101853598460533,-0.5329302213151383 C10.20788222748979,29.77392252126729 0.16921703822711023,16.679583565474662 0.16921703822711023,10.84946160109712 c0,-6.006729549866823 4.86939741574822,-10.876126965615045 10.876126965615045,-10.876126965615045 s10.876126965615045,4.86939741574822 10.876126965615045,10.876126965615045 c0,5.83012196437755 -10.038665189262685,18.924460920170176 -10.46594160576899,19.478625484608656 L11.04534400384216,30.86101730702092 zM11.04534400384216,1.0091562512549348 c-5.432172247367814,0.006020713141679801 -9.834284636700504,4.408133102474368 -9.840305349842183,9.840305349842183 c0,4.844537696969671 7.928696557933366,15.744488559747492 9.840305349842183,18.303485861514343 c1.9116087919088152,-2.5589973017668544 9.840305349842183,-13.459983986160447 9.840305349842183,-18.303485861514343 C20.87962864054266,5.4172893537293065 16.477516251209963,1.0151769643966146 11.04534400384216,1.0091562512549348 z" data-original="#231F20" class="" data-old_color="#231F20" id="svg_5"/>
	<path style="fill:#FBBB83" d="M11.04534400384216,14.47483725630213 c-2.002243183288942,0 -3.6253756552050147,-1.6231324719160738 -3.6253756552050147,-3.6253756552050147 s1.6231324719160738,-3.6253756552050147 3.6253756552050147,-3.6253756552050147 s3.6253756552050147,1.6231324719160738 3.6253756552050147,3.6253756552050147 C14.668453799262663,12.850733701621275 13.046616104366306,14.47257139651763 11.04534400384216,14.47483725630213 zM11.04534400384216,8.259907561664965 c-1.4301459571273925,0 -2.5895540394321537,1.1594080823047608 -2.5895540394321537,2.5895540394321537 s1.1594080823047608,2.5895540394321537 2.5895540394321537,2.5895540394321537 s2.5895540394321537,-1.1594080823047608 2.5895540394321537,-2.5895540394321537 C13.63321483314867,9.420027771330572 12.474777833608702,8.261590771790598 11.04534400384216,8.259907561664965 z" data-original="#231F20" class="" data-old_color="#231F20" id="svg_6"/>
</g></g></g></svg>