<svg xmlns="http://www.w3.org/2000/svg" xmlns:xlink="http://www.w3.org/1999/xlink" version="1.1" style="enable-background:new 0 0 477.112 477.112;" xml:space="preserve" width="22" height="31"><rect id="backgroundrect" width="100%" height="100%" x="0" y="0" fill="none" stroke="none" style="" class=""/> <g class="currentLayer" style=""><title>Layer 1</title><g id="svg_1" class=""><path style="fill:#8200BF" d="M11.04740062636204,0.5129515929537443 c-5.789905002703528,0 -10.48349818292742,4.6935931802238935 -10.48349818292742,10.48349818292742 c0,5.7900360464308145 10.48349818292742,19.394471638415727 10.48349818292742,19.394471638415727 s10.48349818292742,-13.604435591984913 10.48349818292742,-19.394471638415727 C21.530898809289457,5.206544773177635 16.83730562906556,0.5129515929537443 11.04740062636204,0.5129515929537443 zM11.04740062636204,14.14149923075939 c-1.7369846051837876,0 -3.145049454878226,-1.4080648496944392 -3.145049454878226,-3.145049454878226 s1.4080648496944392,-3.145049454878226 3.145049454878226,-3.145049454878226 s3.145049454878226,1.4080648496944392 3.145049454878226,3.145049454878226 S12.784385231545821,14.14149923075939 11.04740062636204,14.14149923075939 z" data-original="#7C84E8" class="active-path" data-old_color="#7C84E8" id="svg_2"/><circle style="fill:#FFFFFF" cx="11.0474006103655" cy="10.996449775881164" r="3.1450493335723877" data-original="#A1A7EF" class="" data-old_color="#A1A7EF" id="svg_3"/><g id="svg_4">
	<path style="fill:#DAB6F9" d="M11.04740062636204,31.250044090387796 l-0.4151465280439261,-0.5393759815116157 C10.199809798272367,30.149800956089564 0.03972753428824115,16.89708672814186 0.03972753428824115,10.996449775881164 c0,-6.079380596279611 4.92829249579418,-11.00767309207379 11.00767309207379,-11.00767309207379 s11.00767309207379,4.92829249579418 11.00767309207379,11.00767309207379 c0,5.900636952260698 -10.160082263984108,19.153351180208396 -10.592526564029864,19.714218332995014 L11.04740062636204,31.250044090387796 zM11.04740062636204,1.0371265021001155 c-5.497874056445355,0.006093533318826575 -9.953229740462227,4.461449217335693 -9.959323273781049,9.959323273781049 c0,4.903132100155154 8.024593684121792,15.934917238049676 9.959323273781049,18.5248654641419 c1.9347295896592553,-2.5899482260922193 9.959323273781049,-13.622781713805036 9.959323273781049,-18.5248654641419 C21.000630366824264,5.4985757194358085 16.545274682807403,1.0432200354189414 11.04740062636204,1.0371265021001155 z" data-original="#231F20" class="" data-old_color="#231F20" id="svg_5"/>
	<path style="fill:#DAB6F9" d="M11.04740062636204,14.665674139905764 c-2.0264601987598705,0 -3.669224364024597,-1.6427641652647262 -3.669224364024597,-3.669224364024597 s1.6427641652647262,-3.669224364024597 3.669224364024597,-3.669224364024597 s3.669224364024597,1.6427641652647262 3.669224364024597,3.669224364024597 C14.714331725159115,13.021927146686384 13.072877997167264,14.663380874678248 11.04740062636204,14.665674139905764 zM11.04740062636204,8.375575230149309 c-1.4474434897440607,0 -2.620874545731855,1.1734310559877947 -2.620874545731855,2.620874545731855 s1.1734310559877947,2.620874545731855 2.620874545731855,2.620874545731855 s2.620874545731855,-1.1734310559877947 2.620874545731855,-2.620874545731855 C13.666571603639168,9.54972702663718 12.494123375606032,8.377278798604037 11.04740062636204,8.375575230149309 z" data-original="#231F20" class="" data-old_color="#231F20" id="svg_6"/>
</g></g></g></svg>