<svg xmlns="http://www.w3.org/2000/svg" xmlns:xlink="http://www.w3.org/1999/xlink" version="1.1" style="enable-background:new 0 0 477.112 477.112;" xml:space="preserve" width="22" height="31"><rect id="backgroundrect" width="100%" height="100%" x="0" y="0" fill="none" stroke="none" style="" class=""/> <g class="currentLayer" style=""><title>Layer 1</title><g id="svg_1" class=""><path style="fill:#F30000" d="M11.026576631991462,0.6084529039817258 c-5.734589480720707,0 -10.383341069136469,4.648751588415761 -10.383341069136469,10.383341069136469 c0,5.734719272484073 10.383341069136469,19.209180977902466 10.383341069136469,19.209180977902466 s10.383341069136469,-13.474461705418395 10.383341069136469,-19.209180977902466 C21.40991770112793,5.257204492397488 16.761166112712168,0.6084529039817258 11.026576631991462,0.6084529039817258 zM11.026576631991462,14.106796293859135 c-1.7203898233925488,0 -3.1150023207409405,-1.3946124973483918 -3.1150023207409405,-3.1150023207409405 s1.3946124973483918,-3.1150023207409405 3.1150023207409405,-3.1150023207409405 s3.1150023207409405,1.3946124973483918 3.1150023207409405,3.1150023207409405 S12.746966455384015,14.106796293859135 11.026576631991462,14.106796293859135 z" data-original="#7C84E8" class="" data-old_color="#7C84E8" id="svg_2"/><circle style="fill:#FFFFFF" cx="11.026576616147736" cy="10.991793973118195" r="3.115002155303955" data-original="#A1A7EF" class="active-path" data-old_color="#A1A7EF" id="svg_3"/><g id="svg_4">
	<path style="fill:#D79F9F" d="M11.026576631991462,31.0518897516364 l-0.4111803063378048,-0.5342228980070718 C10.187083506551785,29.962158106430522 0.12406850939817898,16.836057493881654 0.12406850939817898,10.991793973118195 c0,-6.021299485992238 4.8812086366010545,-10.902508122593293 10.902508122593293,-10.902508122593293 s10.902508122593293,4.8812086366010545 10.902508122593293,10.902508122593293 c0,5.844263520763462 -10.06301499715361,18.97036413331233 -10.491327816255488,19.52587288051113 L11.026576631991462,31.0518897516364 zM11.026576631991462,1.1276199574385493 c-5.445348536063575,0.006035316996435587 -9.85813869868321,4.41882547961607 -9.864174015679646,9.864174015679646 c0,4.856288618035126 7.947928421370509,15.782678425087433 9.864174015679646,18.347882836217597 c1.9162455943091352,-2.565204411130164 9.864174015679646,-13.492632552289386 9.864174015679646,-18.347882836217597 C20.884715330674684,5.5464454370546195 16.471925168055048,1.1336552744349853 11.026576631991462,1.1276199574385493 z" data-original="#231F20" class="" data-old_color="#231F20" id="svg_5"/>
	<path style="fill:#D79F9F" d="M11.026576631991462,14.62596334731596 c-2.0070998286640793,0 -3.6341693741977643,-1.627069545533685 -3.6341693741977643,-3.6341693741977643 s1.627069545533685,-3.6341693741977643 3.6341693741977643,-3.6341693741977643 s3.6341693741977643,1.627069545533685 3.6341693741977643,3.6341693741977643 C14.658474650330367,12.997920363557045 13.032703022430322,14.623691991457086 11.026576631991462,14.62596334731596 zM11.026576631991462,8.395958705834078 c-1.4336149222393364,0 -2.595835267284117,1.1622203450447812 -2.595835267284117,2.595835267284117 s1.1622203450447812,2.595835267284117 2.595835267284117,2.595835267284117 s2.595835267284117,-1.1622203450447812 2.595835267284117,-2.595835267284117 C13.62072460635185,9.558892905577359 12.4594776995323,8.397645998757813 11.026576631991462,8.395958705834078 z" data-original="#231F20" class="" data-old_color="#231F20" id="svg_6"/>
</g></g></g></svg>